<svg width="31" height="30" viewBox="0 0 31 30" fill="none" xmlns="http://www.w3.org/2000/svg">
<path d="M28 8.75C28 5.29822 25.2018 2.5 21.75 2.5H15.5H9.25C5.79822 2.5 3 5.29822 3 8.75V21.25C3 24.7018 5.79822 27.5 9.25 27.5H21.75C25.2018 27.5 28 24.7018 28 21.25V8.75Z" stroke="#4A3730" stroke-width="2" stroke-linecap="round" stroke-linejoin="round"/>
<path d="M19.9923 17.2488C20.4767 16.3153 20.6544 15.2528 20.5001 14.2125C20.3428 13.1514 19.8483 12.1689 19.0897 11.4104C18.3312 10.6518 17.3488 10.1574 16.2876 10C15.2473 9.84575 14.1849 10.0234 13.2514 10.5078C12.3179 10.9922 11.5609 11.7586 11.088 12.698C10.6152 13.6374 10.4506 14.702 10.6177 15.7403C10.7848 16.7786 11.275 17.7378 12.0187 18.4815C12.7623 19.2251 13.7215 19.7153 14.7599 19.8824C15.7982 20.0495 16.8628 19.8849 17.8022 19.4121C18.7416 18.9393 19.5079 18.1823 19.9923 17.2488Z" stroke="#4A3730" stroke-width="2" stroke-linecap="round" stroke-linejoin="round"/>
<path d="M22.375 8.125H22.3875" stroke="#4A3730" stroke-width="2" stroke-linecap="round" stroke-linejoin="round"/>
</svg>
