<svg width="133" height="91" viewBox="0 0 133 91" fill="none" xmlns="http://www.w3.org/2000/svg">
<path d="M15.8006 81.6801C15.348 81.9456 14.9487 82.2377 14.4694 82.3971C13.8038 82.6095 13.298 82.9547 12.9785 83.592C12.9252 83.7248 12.6856 83.831 12.5525 83.8045C10.9817 83.6451 9.38422 83.4593 7.8134 83.3265C7.06792 83.2468 6.61531 82.875 6.32244 82.2377C6.1627 81.8925 5.94971 81.7066 5.52372 81.627C4.03277 81.3083 2.67494 80.6976 1.60998 79.5823C0.784628 78.7325 0.252145 77.6969 0.172273 76.5019C0.0657765 74.3245 -0.0673441 72.147 0.0391524 69.9695C0.252145 65.0569 1.23724 60.3036 3.0743 55.7362C4.512 52.2045 6.37569 48.9383 8.61212 45.8579C10.9284 42.6979 13.6175 39.9097 16.5461 37.3605C18.7559 35.4485 21.0722 33.6694 23.5482 32.1026C25.4386 30.8811 26.5301 28.9692 27.2756 26.8714C28.4737 23.4458 28.7133 19.9406 28.4737 16.3558C28.3938 15.3732 28.527 14.3642 28.5536 13.3551C28.5802 11.9743 28.2075 10.7527 27.4886 9.55779C27.036 8.84081 26.8496 7.93796 26.5301 7.08821C25.8379 7.30064 25.0924 7.51308 24.347 7.72552C24.1074 7.77863 23.8411 7.80518 23.6015 7.77863C22.8294 7.75207 22.2437 7.24753 22.1105 6.53056C22.004 5.99947 22.5099 5.2825 23.1755 5.0435C24.1872 4.67174 25.2256 4.35308 26.2639 3.98132C26.7165 3.82199 27.1691 3.66266 27.5685 3.42367C28.2873 3.02535 28.9796 2.97224 29.7783 3.13157C31.2692 3.42367 32.7336 3.31745 34.1979 2.75981C35.9817 2.06939 37.8454 1.43208 39.789 1.43208C40.8539 1.43208 41.9189 1.80384 42.9572 2.1225C44.4216 2.57393 45.8593 3.26434 47.4567 3.07846C49.7996 2.81292 52.0361 2.20216 54.2192 1.2993C54.6718 1.11342 55.0978 0.927538 55.5504 0.741655C56.9083 0.104345 58.1862 0.768213 58.2927 2.25527C58.4525 4.88418 57.9466 7.30064 55.9764 9.23913C54.6452 10.5403 53.0478 11.4432 51.3438 12.1867C49.7464 12.8771 48.1756 13.6472 46.9508 14.9484C45.9391 16.0371 45.4599 17.2321 45.7794 18.7191C46.1255 20.339 46.445 21.9588 46.7112 23.5786C47.2437 26.6855 47.5366 29.8189 47.3768 33.0055C47.3502 33.6163 47.2437 34.227 47.0573 34.7847C46.6047 36.0858 46.7379 37.2542 47.4301 38.4226C47.8561 39.1662 48.2554 39.9363 48.4684 40.7594C48.8944 42.2465 48.5749 43.7601 48.2554 45.1941C47.8028 47.1857 47.1638 49.1507 46.4982 51.0892C46.232 51.8858 45.6196 52.5762 45.2203 53.3198C45.0605 53.6119 44.8475 53.9836 44.8742 54.3023C44.9807 56.7719 45.1138 59.2414 45.3002 61.711C45.4333 63.5964 45.5398 65.5083 45.806 67.3937C46.0456 69.1729 46.4184 70.952 46.7379 72.7312C46.8177 73.2357 47.1106 73.3154 47.6165 73.2888C48.7879 73.2357 49.986 73.2092 50.9711 74.0058C51.8763 74.7493 51.6367 76.0505 50.5451 76.4488C49.8795 76.6878 49.2405 76.9799 48.5483 77.0861C47.084 77.3251 45.8859 76.7144 44.8475 75.7319C44.5547 75.4663 44.2352 75.2008 43.8092 74.829C43.756 75.2008 43.7027 75.4398 43.7027 75.6787C43.8092 77.8562 43.8891 80.0337 44.0222 82.2112C44.1287 84.0966 45.1937 85.3446 46.7379 86.3006C47.3502 86.6723 47.9093 87.2566 48.2821 87.8673C48.5483 88.2922 48.6282 88.956 48.5483 89.4871C48.4152 90.2838 47.6165 90.3634 47.0041 90.4431C46.0456 90.6024 45.1138 90.4165 44.2086 90.0182C43.3566 89.6199 42.5046 89.2481 41.6526 88.9295C40.3747 88.4781 39.789 87.469 39.8156 86.274C39.8156 83.5389 38.9902 80.9631 38.4844 78.3342C38.3513 77.6703 38.3246 76.9268 38.3779 76.2364C38.6441 73.0498 38.5909 69.8898 37.7922 66.783C36.7538 62.7998 34.1446 60.224 30.4705 58.551C29.3523 58.0465 28.2607 57.4888 27.1958 56.9046C26.3172 56.4267 26.0243 55.8159 26.2107 54.8865C26.4769 53.4525 26.823 52.0186 27.0626 50.5581C27.3289 49.071 27.4886 47.584 27.036 46.1235C26.6899 45.0347 26.2905 43.9726 25.8912 42.8838C25.3054 41.264 24.4535 40.9719 23.1489 42.1137C22.5099 42.6714 22.1638 42.6183 21.5514 42.0872C20.5131 41.1843 19.8475 40.9984 18.8624 41.1047C18.889 41.6092 18.9423 42.1403 18.9689 42.5121C18.1968 42.8307 17.4247 43.1494 16.6526 43.468C16.2 43.6273 15.7474 43.7867 15.2948 43.8663C13.5908 44.1053 13.085 44.8489 13.6441 46.4952C13.8837 47.1591 14.2564 47.8761 14.7623 48.3275C16.0669 49.3897 16.0935 51.3813 15.4545 52.7621C14.7889 54.2492 14.0168 55.6831 13.511 57.2233C12.5791 59.9584 12.659 62.6404 14.3896 65.1366C14.6025 65.4287 14.5759 65.8801 14.6824 66.2253C15.2149 68.2169 15.774 70.1819 16.2799 72.1735C16.4662 72.9436 16.626 73.7403 16.6526 74.5103C16.6792 75.0149 16.5195 75.5991 16.3065 76.0505C15.4811 77.8297 15.1617 79.6885 15.8006 81.6801Z" fill="white"/>
<path d="M111.355 30.4031C111.861 28.6505 112.42 26.8979 112.899 25.1453C113.405 23.2865 113.857 21.4276 114.337 19.5688C114.443 19.1705 114.55 18.7722 114.576 18.3738C114.576 17.71 114.203 17.2851 113.591 17.0727C113.378 16.993 113.165 16.9399 112.925 16.9133C111.914 16.7806 111.914 16.7806 112.02 15.7184C114.443 15.7184 116.866 15.7184 119.289 15.7184C119.555 16.6212 119.502 16.7009 118.596 16.9399C117.345 17.2586 116.733 18.2145 116.387 19.3033C114.949 23.5786 113.538 27.8804 112.127 32.1822C111.594 33.8021 111.115 35.4219 110.636 36.9886C110.556 37.0152 110.529 37.0417 110.503 37.0417C108.985 37.2011 109.012 37.2011 108.399 35.5812C107.042 31.8901 105.684 28.1991 104.299 24.508C104.086 23.9503 103.873 23.3927 103.66 22.835C103.607 22.835 103.554 22.835 103.474 22.835C103.394 22.9944 103.288 23.1802 103.234 23.3396C101.743 27.7211 100.252 32.1026 98.8147 36.5106C98.5484 37.3073 98.016 36.9621 97.5633 37.0417C97.0841 37.1214 96.8977 36.909 96.7646 36.4575C95.3802 31.8105 93.9691 27.1634 92.5314 22.5164C92.1054 21.1355 91.6262 19.7812 91.0937 18.427C90.7476 17.5241 90.0287 16.993 89.0436 16.8337C88.2449 16.7275 88.6176 16.1433 88.5378 15.6653C91.706 15.6653 94.8477 15.6653 97.9627 15.6653C98.0958 16.7009 98.0958 16.7009 97.164 16.8602C95.9659 17.0727 95.5932 17.5772 95.9126 18.7456C96.9776 22.4367 98.0692 26.1278 99.1342 29.7923C99.1874 29.9251 99.2673 30.0579 99.4004 30.3765C99.5868 29.9251 99.7199 29.633 99.7998 29.3143C101.078 25.4108 102.329 21.4807 103.607 17.5772C103.687 17.2851 103.847 17.0196 103.873 16.7275C103.98 15.9839 104.379 15.8246 105.071 15.8512C105.604 15.8777 105.764 16.1433 105.897 16.5416C107.148 19.9671 108.426 23.3661 109.704 26.7917C110.157 27.9866 110.609 29.1816 111.062 30.3765C111.195 30.4296 111.275 30.4296 111.355 30.4031Z" fill="white"/>
<path d="M65.5079 28.2258C65.5079 28.9162 65.5079 29.5535 65.5079 30.1908C65.5079 31.3061 65.5079 32.4214 65.5079 33.5367C65.5079 35.1831 66.0137 35.7142 67.691 35.8204C68.543 35.8735 68.6229 35.9797 68.4099 36.9357C67.478 36.9357 66.5196 36.9357 65.5611 36.9357C63.4046 36.9357 61.2214 36.9357 59.0648 36.9357C58.7453 36.9357 58.4259 37.0153 58.3992 36.4842C58.3726 36.0063 58.6388 35.8469 59.0382 35.7938C59.4109 35.7407 59.8636 35.7673 60.1564 35.5814C60.5292 35.3158 60.9019 34.891 61.035 34.4661C61.2214 33.935 61.1948 33.3508 61.1948 32.7932C61.1948 28.571 61.1948 24.3222 61.1948 20.1001C61.1948 19.569 61.1415 19.0644 61.0616 18.5333C60.9551 17.6305 60.4759 17.0994 59.5707 17.0463C58.7187 16.9932 58.5856 16.9932 58.7187 15.7982C58.9317 15.7982 59.1447 15.7982 59.3577 15.7982C62.0734 15.7982 64.789 15.7185 67.5047 15.8248C68.9956 15.8779 70.4866 16.0903 71.9243 16.4886C74.1607 17.1259 75.4919 19.1175 75.5718 21.4543C75.6516 23.1804 75.3322 24.8002 74.1607 26.1545C73.1224 27.3229 71.8178 27.9602 70.3268 28.3585C68.8891 28.7569 67.4781 28.81 66.067 28.3054C65.9605 28.2523 65.7741 28.2523 65.5079 28.2258ZM65.5079 22.3572C65.5079 23.7115 65.4812 25.0923 65.5079 26.4466C65.5079 26.659 65.6676 26.9777 65.854 27.0308C67.3715 27.6947 69.3417 27.0043 70.1937 25.5969C71.2587 23.9239 71.2054 22.0916 70.9126 20.2594C70.5664 18.2147 68.8359 16.9135 66.7592 17.0197C65.9338 17.0728 65.5079 17.4977 65.5079 18.2943C65.5079 19.6752 65.5079 21.0029 65.5079 22.3572Z" fill="white"/>
<path d="M94.0489 35.8201C94.0756 36.0857 94.0756 36.245 94.0756 36.4309C94.0756 36.5637 94.049 36.6965 94.0223 36.8823C90.9606 36.8823 87.9254 36.8823 84.837 36.8823C84.837 36.5637 84.837 36.245 84.837 35.8998C85.1565 35.8201 85.5292 35.767 85.8487 35.6608C86.5409 35.4484 86.7806 34.997 86.5409 34.3065C86.115 33.0319 85.689 31.7307 85.2364 30.4561C85.1565 30.2437 84.8104 30.0313 84.5974 30.0313C82.7869 30.0047 81.0031 30.0047 79.1927 30.0313C79.0063 30.0313 78.6868 30.1906 78.6336 30.3765C78.2076 31.5714 77.8082 32.7664 77.4621 33.9879C77.1426 35.1563 77.3556 35.4749 78.5803 35.7405C78.8732 35.8202 79.1661 35.8467 79.4856 35.8998C79.4856 36.2185 79.4856 36.5371 79.4856 36.9089C77.0894 36.9089 74.7465 36.9089 72.3237 36.9089C72.3237 36.5371 72.3237 36.2185 72.3237 35.8467C74.1075 35.8733 75.0393 34.8642 75.6251 33.324C76.6102 30.7482 77.6751 28.199 78.6868 25.6497C79.9648 22.5163 81.2161 19.3563 82.4675 16.1963C82.7603 15.4793 83.4525 15.6652 83.9584 15.5324C84.0915 15.5059 84.411 15.9308 84.5175 16.1963C86.3013 21.0292 88.0585 25.8887 89.8157 30.7217C90.1618 31.6776 90.5612 32.607 90.9606 33.563C91.5463 34.8907 92.4249 35.8201 94.0489 35.8201ZM84.4909 28.3317C83.6655 25.9418 82.8668 23.6316 82.0947 21.3213C82.0148 21.3213 81.935 21.3213 81.8551 21.3213C81.0298 23.6316 80.2044 25.9418 79.3258 28.3317C81.083 28.3317 82.7337 28.3317 84.4909 28.3317Z" fill="white"/>
<path d="M119.741 30.3766C120.38 31.4919 120.913 32.6603 121.658 33.6694C122.696 35.1033 124.054 36.1389 125.998 35.9796C127.462 35.8734 128.74 34.5722 128.873 33.1117C129.086 30.9873 127.835 29.8189 126.237 28.8099C124.693 27.8539 123.069 26.9776 121.578 25.9154C118.437 23.6583 118.809 19.1705 121.418 16.9931C122.563 16.0371 123.895 15.5857 125.359 15.3467C127.116 15.0546 128.793 15.4263 130.471 15.7981C131.083 15.9309 131.376 16.2495 131.403 16.9134C131.456 17.8694 131.616 18.7988 131.775 19.7282C131.935 20.7107 131.855 20.8435 131.056 20.8169C130.284 19.6485 129.725 18.4536 128.873 17.5242C127.489 16.0371 125.119 16.1168 123.895 17.4976C122.617 18.905 122.803 21.2418 124.374 22.304C125.945 23.3396 127.622 24.2159 129.219 25.1719C130.79 26.1013 132.201 27.2697 132.654 29.102C133.373 31.9699 132.334 34.6253 129.645 36.0858C126.637 37.7322 123.548 37.4932 120.433 36.3514C119.874 36.1389 119.661 35.8468 119.581 35.3157C119.395 34.0146 119.102 32.7399 118.942 31.4388C118.783 30.5359 118.836 30.5359 119.741 30.3766Z" fill="white"/>
<path d="M65.1351 71.4832C64.4962 73.3155 63.8838 75.015 63.2981 76.7145C63.1649 77.0862 63.0052 77.2987 62.5792 77.2456C62.1266 77.1659 61.5675 77.4846 61.3545 76.741C60.822 75.0681 60.2363 73.3952 59.6772 71.7222C59.3044 70.66 58.9583 69.5978 58.5323 68.4029C59.1713 68.4029 59.7038 68.3498 60.2097 68.4294C60.3694 68.456 60.5558 68.7481 60.609 68.9605C61.1415 70.6069 61.6474 72.2799 62.1532 73.9528C62.1799 74.059 62.2331 74.1387 62.2597 74.2449C62.313 74.2449 62.3928 74.2714 62.4461 74.2714C62.6857 73.581 62.8987 72.9172 63.1383 72.2267C63.5111 71.138 63.9104 70.0493 64.2299 68.9605C64.4429 68.2436 64.9754 68.4826 65.428 68.4029C65.8806 68.3498 65.9871 68.5888 66.1202 68.9605C66.6261 70.5538 67.1586 72.1471 67.691 73.7138C67.7443 73.8997 67.8508 74.0856 68.0105 74.4042C68.4099 73.1562 68.756 72.0409 69.1021 70.9256C69.3151 70.2883 69.5281 69.6244 69.6612 68.9871C69.7677 68.5091 69.9807 68.3498 70.46 68.3763C70.8327 68.4029 71.2321 68.3763 71.7113 68.3763C71.3918 69.3589 71.1256 70.2617 70.8061 71.138C70.1937 72.9703 69.5281 74.8025 68.9158 76.6614C68.756 77.1659 68.5164 77.2456 68.0904 77.1925C67.6378 77.1393 67.1319 77.3518 66.9189 76.6348C66.4131 75.015 65.8274 73.4217 65.2683 71.8284C65.3215 71.7753 65.2416 71.6691 65.1351 71.4832Z" fill="white"/>
<path d="M104.033 64.6319C104.033 62.6669 104.033 60.8081 104.033 58.9758C103.98 58.9493 103.926 58.9227 103.873 58.9227C103.075 60.1177 102.276 61.2861 101.45 62.5607C100.625 61.3126 99.853 60.1442 99.0809 58.9758C99.0277 58.9758 98.9744 58.9758 98.9212 59.0024C98.8945 59.2414 98.8679 59.4538 98.8679 59.6928C98.8679 61.1267 98.8413 62.5607 98.8679 63.9946C98.8679 64.5257 98.7348 64.7647 98.1757 64.6851C97.9627 64.6585 97.6964 64.7116 97.5101 64.6585C97.3503 64.6054 97.1373 64.4195 97.1373 64.3133C97.1107 61.5251 97.1107 58.7368 97.1107 55.8955C97.8029 55.8955 98.4419 55.8955 99.0809 55.8955C99.8264 57.117 100.598 58.3385 101.45 59.6662C101.69 59.321 101.93 59.0024 102.116 58.7103C102.595 57.9667 103.101 57.2498 103.5 56.4531C103.767 55.922 104.113 55.7893 104.645 55.8424C104.991 55.8689 105.311 55.8424 105.737 55.8424C105.764 56.161 105.79 56.4266 105.79 56.6656C105.79 59.0289 105.79 61.3923 105.79 63.7556C105.79 64.6585 105.79 64.6585 104.912 64.6585C104.645 64.6319 104.406 64.6319 104.033 64.6319Z" fill="white"/>
<path d="M73.5483 55.816C74.1074 55.816 74.5601 55.7894 75.0127 55.8425C75.199 55.8691 75.3854 56.055 75.5185 56.2143C76.69 57.7279 77.8348 59.2415 78.9797 60.7551C79.1128 60.9145 79.166 61.1003 79.2725 61.2862C79.3524 61.2331 79.4589 61.18 79.5388 61.1003C79.5388 59.3743 79.5388 57.6482 79.5388 55.8691C80.1511 55.8691 80.6836 55.8691 81.296 55.8691C81.296 56.1081 81.3226 56.3471 81.3226 56.5861C81.3226 59.0025 81.3226 61.419 81.3226 63.8089C81.3226 64.0745 81.1628 64.579 81.0564 64.579C80.5505 64.579 79.9648 64.8711 79.5388 64.3134C78.3141 62.6671 77.0627 61.0207 75.8114 59.3743C75.7315 59.2681 75.5718 59.1884 75.3588 59.0025C75.3588 60.941 75.3588 62.7467 75.3588 64.4728C75.2257 64.5524 75.199 64.579 75.1458 64.579C73.5483 64.7118 73.5483 64.7118 73.5483 63.1185C73.5483 60.9676 73.5483 58.7901 73.5483 56.6392C73.5483 56.4267 73.5483 56.1877 73.5483 55.816Z" fill="white"/>
<path d="M115.614 68.323C117.345 68.4292 119.049 68.4292 120.726 68.6682C121.791 68.801 122.563 69.5711 122.75 70.6864C122.963 71.8282 122.75 72.8638 121.738 73.5808C121.498 73.7667 121.206 73.926 120.939 74.1119C121.632 75.121 122.297 76.1035 123.043 77.2188C122.324 77.2188 121.765 77.2453 121.179 77.1922C121.019 77.1922 120.833 77.0064 120.726 76.847C120.354 76.369 120.034 75.838 119.688 75.3334C118.942 74.2181 118.969 74.2181 117.478 74.404C117.478 75.2803 117.478 76.1832 117.478 77.1391C116.839 77.1391 116.253 77.1391 115.614 77.1391C115.614 74.2978 115.614 71.4033 115.614 68.323ZM117.531 70.1553C117.531 71.0847 117.531 71.9079 117.531 72.8373C118.357 72.7842 119.155 72.8107 119.954 72.7045C120.7 72.5983 121.019 72.0938 120.966 71.2174C120.913 70.6332 120.487 70.2084 119.821 70.1818C119.049 70.1287 118.303 70.1553 117.531 70.1553Z" fill="white"/>
<path d="M79.1128 85.4242C79.0596 88.0797 77.0894 89.912 74.4802 89.912C71.7646 89.8854 69.9541 88.0266 69.9009 85.4508C69.8476 82.9281 71.9509 80.9365 74.5601 80.9365C77.0362 80.9631 79.1927 82.875 79.1128 85.4242ZM71.8178 85.3711C71.8178 87.0175 72.9627 88.2656 74.5069 88.2656C76.0244 88.2656 77.1693 87.0441 77.2491 85.5039C77.329 84.0965 76.1309 82.5563 74.5069 82.5563C72.9893 82.5563 71.8178 83.8044 71.8178 85.3711Z" fill="white"/>
<path d="M133 41.2375C132.867 41.3703 132.76 41.5561 132.601 41.5827C132.388 41.6358 132.148 41.6092 131.908 41.6092C107.707 41.6092 83.5058 41.6092 59.3044 41.6092C59.0116 41.6092 58.4525 41.4234 58.4525 41.3703C58.5057 40.7861 59.0116 41.0782 59.3044 41.0782C83.4259 41.0516 107.521 41.0516 131.642 41.0516C132.042 41.0516 132.414 41.0516 132.814 41.0516C132.867 41.1047 132.947 41.1844 133 41.2375Z" fill="white"/>
<path d="M75.3854 68.4292C77.5154 68.4292 79.592 68.4292 81.7486 68.4292C81.7486 68.9868 81.7486 69.5179 81.7486 70.1021C80.231 70.1021 78.7667 70.1021 77.2491 70.1021C77.2491 70.7395 77.2491 71.3237 77.2491 72.0141C78.5803 72.0141 79.9115 72.0141 81.2694 72.0141C81.2694 72.5452 81.2694 72.9966 81.2694 73.5542C79.9381 73.5542 78.607 73.5542 77.2491 73.5542C77.2491 74.2447 77.2491 74.8554 77.2491 75.5193C78.5271 75.5193 79.7784 75.5193 81.0297 75.5193C81.9616 75.5193 81.9616 75.5193 81.9616 76.4487C81.9616 76.6877 81.935 76.9267 81.935 77.2188C79.7518 77.2188 77.5952 77.2188 75.4121 77.2188C75.3854 74.2978 75.3854 71.4033 75.3854 68.4292Z" fill="white"/>
<path d="M132.76 70.1554C131.216 70.1554 129.752 70.1554 128.234 70.1554C128.234 70.7927 128.234 71.3769 128.234 72.0142C129.566 72.0142 130.897 72.0142 132.255 72.0142C132.255 72.5453 132.255 73.0233 132.255 73.5544C130.95 73.5544 129.645 73.5544 128.261 73.5544C128.261 74.2183 128.261 74.8025 128.261 75.4929C129.805 75.4929 131.323 75.4929 132.92 75.4929C132.92 76.1037 132.92 76.6347 132.92 77.2455C131.695 77.2455 130.497 77.2455 129.299 77.2455C128.501 77.2455 127.702 77.2189 126.903 77.2455C126.504 77.2455 126.344 77.1393 126.344 76.7144C126.344 74.1121 126.344 71.5363 126.371 68.9339C126.371 68.7746 126.61 68.4559 126.717 68.4294C128.714 68.4028 130.71 68.4028 132.76 68.4028C132.76 69.0136 132.76 69.5447 132.76 70.1554Z" fill="white"/>
<path d="M103.181 81.0427C105.311 81.0427 107.388 81.0427 109.544 81.0427C109.544 81.5738 109.544 82.0784 109.544 82.6891C108.053 82.6891 106.562 82.6891 105.045 82.6891C105.045 83.353 105.045 83.9372 105.045 84.601C106.376 84.601 107.707 84.601 109.092 84.601C109.092 85.1587 109.092 85.6101 109.092 86.1943C107.76 86.1943 106.429 86.1943 105.071 86.1943C105.071 86.8582 105.071 87.4424 105.071 88.1063C106.323 88.1063 107.574 88.1063 108.825 88.1063C109.118 88.1063 109.651 88.1328 109.677 88.2656C109.784 88.6905 109.757 89.1684 109.731 89.5933C109.731 89.673 109.491 89.7792 109.358 89.7792C107.334 89.7792 105.311 89.7792 103.208 89.7792C103.181 86.8847 103.181 84.0168 103.181 81.0427Z" fill="white"/>
<path d="M120.913 64.632C120.3 64.632 119.794 64.6852 119.315 64.6055C119.129 64.5789 118.916 64.3399 118.836 64.1541C118.197 62.6139 118.197 62.6139 116.546 62.6139C116.12 62.6139 115.668 62.667 115.242 62.6139C114.496 62.4811 114.203 62.8794 113.99 63.4902C113.538 64.7914 113.298 64.8976 111.781 64.5524C112.1 63.7557 112.42 62.9591 112.739 62.189C113.564 60.224 114.443 58.2855 115.242 56.3205C115.428 55.8956 115.668 55.7628 116.067 55.8425C116.52 55.9221 117.052 55.6035 117.345 56.2939C118.197 58.3652 119.076 60.4099 119.954 62.4811C120.247 63.145 120.567 63.8354 120.913 64.632ZM115.029 60.9675C115.907 60.9675 116.679 60.9675 117.558 60.9675C117.132 60.0115 116.759 59.1087 116.36 58.2058C116.307 58.2058 116.227 58.2058 116.174 58.2058C115.801 59.0821 115.428 59.985 115.029 60.9675Z" fill="white"/>
<path d="M58.5323 64.5258C59.2246 62.906 59.8636 61.3393 60.5292 59.7991C61.035 58.6041 61.5143 57.4092 62.0467 56.2408C62.1266 56.0549 62.3928 55.869 62.6325 55.8159C62.9253 55.7362 63.2714 55.7628 63.5909 55.8159C63.7507 55.8425 63.9903 55.9487 64.0435 56.108C65.2416 58.8697 66.4131 61.6314 67.5579 64.4196C67.5845 64.4461 67.5579 64.4993 67.5313 64.632C67.0254 64.632 66.5196 64.6851 66.0137 64.6055C65.854 64.5789 65.6676 64.2868 65.5611 64.1009C64.8955 62.6139 64.9221 62.6139 63.2981 62.6139C62.8188 62.6139 62.3396 62.6404 61.8604 62.6139C61.3013 62.5608 60.9285 62.7466 60.822 63.3043C60.822 63.3574 60.7954 63.384 60.7688 63.4371C60.2629 64.7914 60.1298 64.871 58.5323 64.5258ZM63.1383 58.1793C63.0851 58.1793 63.0052 58.1527 62.952 58.1527C62.5792 59.0821 62.2065 59.985 61.8071 60.9675C62.6857 60.9675 63.4312 60.9675 64.2832 60.9675C63.9104 59.985 63.5111 59.0821 63.1383 58.1793Z" fill="white"/>
<path d="M103.367 77.1392C103.873 75.9708 104.379 74.8024 104.858 73.6606C105.551 72.0407 106.243 70.4209 106.962 68.8011C107.041 68.6152 107.388 68.4028 107.601 68.4028C108.053 68.4028 108.666 68.1106 108.932 68.748C110.103 71.4831 111.248 74.2448 112.42 76.9799C112.446 77.033 112.42 77.1127 112.42 77.1658C112.366 77.1658 112.313 77.1923 112.286 77.1923C110.662 77.2454 110.662 77.2454 110.077 75.7584C109.917 75.3335 109.704 75.1211 109.171 75.1476C108.293 75.2007 107.388 75.2007 106.509 75.1476C106.083 75.1211 105.897 75.3069 105.764 75.6522C105.737 75.7318 105.71 75.8115 105.657 75.9177C105.151 77.3251 105.018 77.4048 103.367 77.1392ZM109.225 73.5809C108.799 72.5984 108.426 71.669 108.027 70.7661C107.947 70.7661 107.867 70.7661 107.787 70.7661C107.414 71.669 107.041 72.5984 106.616 73.5809C107.494 73.5809 108.266 73.5809 109.225 73.5809Z" fill="white"/>
<path d="M58.559 88.478C58.9051 88.0796 59.1979 87.7079 59.5174 87.3361C60.0233 87.6017 60.4493 87.9203 60.9285 88.0796C61.461 88.239 62.0467 88.3186 62.5792 88.2655C62.8987 88.2124 63.3247 87.8672 63.4312 87.5486C63.6175 87.0971 63.2714 86.7519 62.7922 86.5926C62.0733 86.3536 61.3279 86.1412 60.5824 85.8756C59.1979 85.3976 58.7453 84.6807 58.7986 83.4592C58.8518 81.9721 59.9967 81.2286 61.0616 81.0427C62.4461 80.8303 63.7773 81.1224 64.9754 82.0252C64.6559 82.4766 64.363 82.9015 64.15 83.1671C63.1916 82.9546 62.3928 82.7156 61.5675 82.5828C61.0883 82.5032 60.6889 82.7422 60.609 83.2467C60.5025 83.7778 60.7688 84.0965 61.2746 84.2558C62.1532 84.5213 63.0584 84.7603 63.9104 85.1321C64.789 85.5039 65.2949 86.2208 65.2683 87.2034C65.2416 88.2124 64.8423 89.0356 63.8838 89.5136C62.4195 90.2571 59.757 89.7791 58.559 88.478Z" fill="white"/>
<path d="M97.0841 73.7402C97.0841 74.9617 97.0841 76.0505 97.0841 77.1923C96.4451 77.1923 95.8594 77.1923 95.247 77.1923C95.247 74.2979 95.247 71.4034 95.247 68.4824C97.4302 68.4824 99.5867 68.4824 101.823 68.4824C101.823 69.0135 101.823 69.5181 101.823 70.1288C100.279 70.1288 98.7348 70.1288 97.164 70.1288C97.164 70.8458 97.164 71.4565 97.164 72.1735C98.4952 72.1735 99.8264 72.1735 101.184 72.1735C101.184 72.7312 101.184 73.1826 101.184 73.7668C99.8264 73.7402 98.4952 73.7402 97.0841 73.7402Z" fill="white"/>
<path d="M91.3333 82.2376C91.2268 82.3704 91.1469 82.4766 91.067 82.5828C90.4014 83.4591 90.4014 83.4857 89.4696 82.9812C88.4312 82.4235 87.4195 82.397 86.461 83.0874C85.476 83.8309 85.2896 84.8931 85.4493 86.0084C85.6091 87.1502 86.3279 87.8672 87.4195 88.1859C88.2182 88.4249 88.9371 88.1593 89.6293 87.7344C89.8689 87.6017 90.0819 87.4423 90.3215 87.2565C90.6943 87.6282 91.0404 87.9734 91.3865 88.2921C90.1618 90.0712 87.0202 90.3634 85.1831 88.9294C82.9999 87.2034 82.9999 84.2823 84.5175 82.4235C86.1416 80.485 89.4696 80.4054 91.3333 82.2376Z" fill="white"/>
<path d="M118.277 89.7527C116.36 89.9917 116.36 89.9917 116.36 88.2657C116.36 86.46 116.36 84.6277 116.36 82.7423C115.668 82.7423 115.029 82.6892 114.416 82.7423C113.777 82.7954 113.591 82.5564 113.671 81.9722C113.698 81.7067 113.671 81.4412 113.671 81.0959C116.094 81.0959 118.437 81.0959 120.859 81.0959C120.859 81.6005 120.859 82.1316 120.859 82.7158C120.007 82.7158 119.182 82.7158 118.277 82.7158C118.277 85.1057 118.277 87.4159 118.277 89.7527Z" fill="white"/>
<path d="M129.486 89.7791C128.873 89.7791 128.367 89.7791 127.755 89.7791C127.755 88.7966 127.782 87.8672 127.755 86.9112C127.755 86.5926 127.649 86.2474 127.489 85.9818C126.504 84.362 125.465 82.7687 124.374 81.0161C125.093 81.0161 125.678 80.963 126.237 81.0427C126.45 81.0692 126.663 81.3613 126.797 81.5738C127.302 82.3704 127.755 83.2201 128.234 84.0433C128.341 84.2292 128.501 84.3886 128.687 84.601C129.352 83.5388 129.991 82.5828 130.551 81.5472C130.79 81.1223 131.056 80.9896 131.509 81.0161C131.908 81.0427 132.334 81.0161 132.893 81.0161C132.361 81.8659 131.882 82.6359 131.403 83.3795C130.87 84.2027 130.311 84.9993 129.832 85.8491C129.645 86.1943 129.539 86.6191 129.512 86.9909C129.459 87.8938 129.486 88.8232 129.486 89.7791Z" fill="white"/>
<path d="M91.8658 75.4928C91.8658 76.1301 91.8658 76.6612 91.8658 77.1923C89.8423 77.1923 87.8455 77.1923 85.7955 77.1923C85.7955 74.2978 85.7955 71.4034 85.7955 68.4558C86.4078 68.4558 86.9669 68.4558 87.6325 68.4558C87.6325 70.7926 87.6325 73.1029 87.6325 75.4928C89.0436 75.4928 90.4281 75.4928 91.8658 75.4928Z" fill="white"/>
<path d="M126.85 55.8425C127.436 55.8425 127.995 55.8425 128.634 55.8425C128.634 58.1793 128.634 60.5161 128.634 62.9061C130.098 62.9061 131.482 62.9061 132.894 62.9061C132.894 63.4903 132.894 64.0213 132.894 64.6055C130.87 64.6055 128.873 64.6055 126.823 64.6055C126.85 61.7111 126.85 58.8166 126.85 55.8425Z" fill="white"/>
<path d="M98.0159 89.7527C96.2853 89.9386 96.2853 89.9386 96.2853 88.3453C96.2853 86.1944 96.2853 84.0435 96.2853 81.866C96.2853 81.627 96.2853 81.3614 96.2853 81.0693C96.8711 81.0693 97.4302 81.0693 98.0159 81.0693C98.0159 83.9638 98.0159 86.8317 98.0159 89.7527Z" fill="white"/>
<path d="M90.2683 64.6055C89.6826 64.6055 89.1767 64.6055 88.6176 64.6055C88.6176 61.6845 88.6176 58.7901 88.6176 55.8425C89.1501 55.8425 89.6826 55.8425 90.2683 55.8425C90.2683 58.7635 90.2683 61.658 90.2683 64.6055Z" fill="white"/>
<path d="M90.0021 48.5664C90.0021 47.876 89.9755 47.2122 90.0287 46.5217C90.0287 46.3624 90.2417 46.0703 90.3748 46.0703C91.2534 46.0969 92.1586 46.0703 93.0106 46.2562C94.2087 46.5217 94.7944 47.4777 94.7678 48.7523C94.7412 49.8676 94.0223 50.8501 92.9041 51.0626C92.0788 51.2219 91.2268 51.1954 90.4014 51.1954C90.2683 51.1954 90.0553 50.8767 90.0553 50.6908C89.9754 49.9738 90.0021 49.2834 90.0021 48.5664ZM91.1203 50.2925C92.0788 50.3722 92.9307 50.3191 93.4632 49.4693C93.836 48.8585 93.7827 48.1947 93.3833 47.6105C92.8242 46.8138 91.9723 46.9201 91.1203 47.0528C91.1203 48.1416 91.1203 49.1772 91.1203 50.2925Z" fill="white"/>
<path d="M119.981 48.0353C119.981 47.5042 120.007 46.9997 119.981 46.5217C119.954 46.0968 120.194 46.0437 120.54 46.0437C120.886 46.0437 121.126 46.0968 121.126 46.5217C121.126 47.9556 121.126 49.3896 121.126 50.8235C121.126 51.2218 120.859 51.2484 120.567 51.2218C120.247 51.2218 119.954 51.2218 119.981 50.7704C120.007 50.2393 119.981 49.6817 119.981 49.0709C119.315 49.0709 118.729 49.0444 118.144 49.0975C118.011 49.0975 117.798 49.363 117.798 49.5224C117.744 50.0534 117.771 50.5845 117.771 51.1687C117.372 51.1687 117.079 51.1687 116.706 51.1687C116.706 49.5489 116.706 48.0087 116.733 46.442C116.733 46.3092 117.052 46.0703 117.212 46.0968C117.398 46.1234 117.744 46.3092 117.744 46.4686C117.824 46.9731 117.771 47.5042 117.771 48.0619C118.516 48.0353 119.209 48.0353 119.981 48.0353Z" fill="white"/>
<path d="M68.1969 49.0977C67.4248 49.0977 66.7592 49.0977 66.0138 49.0977C66.0138 49.7881 66.0138 50.4519 66.0138 51.1689C65.6144 51.1689 65.2949 51.1689 64.9488 51.1689C64.9488 49.4694 64.9488 47.7965 64.9488 46.097C65.2949 46.097 65.6144 46.097 65.9871 46.097C65.9871 46.7609 65.9871 47.3982 65.9871 48.062C66.7592 48.062 67.4515 48.062 68.2236 48.062C68.2236 47.3982 68.2236 46.7609 68.2236 46.1501C69.2619 45.9377 69.3152 45.9642 69.3152 46.9202C69.3152 48.3276 69.3152 49.735 69.3152 51.1689C68.9158 51.1689 68.5963 51.1689 68.1969 51.1689C68.1969 50.4785 68.1969 49.8146 68.1969 49.0977Z" fill="white"/>
<path d="M98.575 48.1415C99.427 48.1415 100.199 48.1415 100.998 48.1415C100.998 48.4336 100.998 48.6726 100.998 49.0178C100.199 49.0178 99.4004 49.0178 98.575 49.0178C98.575 49.4958 98.575 49.8676 98.575 50.319C99.4803 50.319 100.359 50.319 101.317 50.319C101.344 50.6111 101.344 50.8501 101.371 51.2218C100.119 51.2218 98.9478 51.2218 97.7497 51.1953C97.6432 51.1953 97.4835 50.9032 97.4835 50.7439C97.4568 49.3365 97.4568 47.9291 97.4835 46.5217C97.4835 46.3624 97.6965 46.0703 97.8296 46.0703C98.9744 46.0437 100.146 46.0437 101.317 46.0437C101.317 46.3624 101.317 46.6013 101.317 46.9466C100.439 46.9466 99.5335 46.9466 98.6017 46.9466C98.575 47.3714 98.575 47.7166 98.575 48.1415Z" fill="white"/>
<path d="M110.077 51.2219C110.077 49.5224 110.077 47.9557 110.103 46.4155C110.103 46.2827 110.29 46.0703 110.396 46.0703C111.275 46.0969 112.18 46.0703 113.032 46.2562C113.831 46.4155 114.23 47.1325 114.177 47.9557C114.15 48.6461 113.564 49.3631 112.846 49.4959C112.313 49.6021 111.781 49.6286 111.221 49.7083C111.168 50.1863 111.142 50.6908 111.009 51.1422C110.982 51.2485 110.476 51.1953 110.077 51.2219ZM111.195 48.6992C111.887 48.7523 112.526 48.8585 112.925 48.2743C113.059 48.0619 113.032 47.637 112.899 47.398C112.499 46.7342 111.807 47.0528 111.195 47.0263C111.195 47.5839 111.195 48.115 111.195 48.6992Z" fill="white"/>
<path d="M59.5441 49.7348C59.5441 50.2128 59.5441 50.6376 59.5441 51.0625C58.5856 51.3812 58.4258 51.2749 58.4258 50.3986C58.4258 49.1506 58.4525 47.9025 58.4258 46.6544C58.4258 46.1765 58.5856 45.9906 59.0648 46.0437C59.8369 46.1234 60.6623 46.0702 61.4077 46.2561C62.2065 46.442 62.5526 47.1324 62.4993 47.9822C62.4461 48.6991 61.887 49.3896 61.1681 49.5223C60.6623 49.602 60.1564 49.6551 59.5441 49.7348ZM59.5707 48.6992C60.2895 48.7523 60.9818 48.8585 61.3279 48.1946C61.4344 47.9822 61.3279 47.5573 61.1681 47.3449C60.7421 46.7607 60.1298 47.0793 59.5441 47.0528C59.5707 47.6104 59.5707 48.1415 59.5707 48.6992Z" fill="white"/>
<path d="M87.4994 51.1422C86.8604 51.3547 86.4078 51.1953 86.2747 50.558C86.1415 50.0269 85.8221 49.9207 85.3428 49.9473C84.837 49.9738 84.3045 49.9473 83.7986 49.9473C83.2129 51.275 83.2129 51.275 82.2811 51.1157C82.4674 50.6377 82.6538 50.1863 82.8402 49.7348C83.3194 48.6196 83.7986 47.5043 84.3045 46.389C84.3844 46.2296 84.6772 46.0703 84.8636 46.0703C85.1032 46.0703 85.4493 46.2031 85.5292 46.3624C86.2214 47.876 86.8604 49.4427 87.4994 50.9829C87.526 51.0095 87.4994 51.0626 87.4994 51.1422ZM85.6889 49.0444C85.4493 48.4602 85.2363 47.9557 85.0233 47.4511C84.9435 47.4511 84.8636 47.4511 84.7837 47.4511C84.5707 47.9557 84.3577 48.4602 84.1181 49.0444C84.6772 49.0444 85.1032 49.0444 85.6889 49.0444Z" fill="white"/>
<path d="M132.894 51.1157C132.175 51.3547 131.775 51.1954 131.642 50.505C131.562 50.0535 131.296 49.8942 130.817 49.9473C130.258 50.0004 129.672 49.9473 129.086 49.9473C128.767 50.5315 128.873 51.6202 127.622 51.0892C128.314 49.4959 128.98 47.9292 129.672 46.3624C129.858 45.911 130.71 45.8845 130.897 46.3093C131.562 47.9026 132.201 49.4693 132.894 51.1157ZM130.364 47.4246C130.284 47.4246 130.178 47.4246 130.098 47.4246C129.885 47.9557 129.672 48.4602 129.432 49.071C129.991 49.071 130.417 49.071 130.977 49.071C130.764 48.4602 130.577 47.9292 130.364 47.4246Z" fill="white"/>
<path d="M76.4504 51.1423C76.4504 49.4428 76.4504 47.7964 76.4504 46.0969C76.7965 46.0969 77.116 46.0969 77.4621 46.0969C77.4621 47.5043 77.4621 48.8586 77.4621 50.2925C78.3673 50.2925 79.2193 50.2925 80.1511 50.2925C80.1777 50.6112 80.1777 50.8502 80.1777 51.1688C78.953 51.1423 77.755 51.1423 76.4504 51.1423Z" fill="white"/>
<path d="M104.113 51.222C104.113 49.496 104.113 47.823 104.113 46.1501C105.098 45.9377 105.151 45.9908 105.151 46.8671C105.151 47.9824 105.151 49.0977 105.151 50.2661C106.03 50.2661 106.855 50.2661 107.654 50.2661C107.893 51.1158 107.84 51.1955 107.121 51.1955C106.136 51.222 105.151 51.222 104.113 51.222Z" fill="white"/>
<path d="M124.853 46.1234C124.853 47.8229 124.853 49.4693 124.853 51.1954C124.56 51.1954 124.294 51.1954 123.921 51.1954C123.921 50.3456 123.921 49.4959 123.921 48.6727C123.921 48.0619 123.948 47.4512 123.895 46.8404C123.841 46.0969 124.161 45.911 124.853 46.1234Z" fill="white"/>
<path d="M73.3886 46.1499C73.3886 47.7963 73.3886 49.4692 73.3886 51.1687C73.0692 51.1687 72.8029 51.1687 72.4302 51.1687C72.4302 50.4517 72.4302 49.7613 72.4302 49.0709C72.4302 48.3274 72.4302 47.5838 72.4302 46.8138C72.4568 45.9906 72.4834 45.964 73.3886 46.1499Z" fill="white"/>
</svg>
