<svg width="30" height="30" viewBox="0 0 30 30" fill="none" xmlns="http://www.w3.org/2000/svg">
<path d="M27.5 24.9V21.15C27.5152 20.537 27.3046 19.9397 26.9082 19.4719C26.5118 19.004 25.9572 18.6982 25.35 18.6125C24.15 18.4542 22.9716 18.1607 21.8375 17.7375C21.3901 17.5693 20.9039 17.5329 20.4364 17.6326C19.969 17.7323 19.5399 17.9639 19.2 18.3L17.6125 19.8875C14.4831 18.1081 11.892 15.5169 10.1125 12.3875L11.7 10.8C12.0361 10.4601 12.2677 10.0311 12.3674 9.5636C12.4671 9.09614 12.4307 8.6099 12.2625 8.1625C11.8393 7.02841 11.5458 5.85008 11.3875 4.65C11.3026 4.04931 11.0022 3.49998 10.5422 3.10441C10.0823 2.70885 9.49417 2.49403 8.88754 2.5H5.13754C4.79046 2.50033 4.44726 2.57292 4.12978 2.71315C3.81229 2.85339 3.52749 3.05819 3.2935 3.31453C3.0595 3.57086 2.88145 3.87311 2.77066 4.20203C2.65988 4.53095 2.6188 4.87933 2.65004 5.225C3.06034 9.08874 4.37501 12.8015 6.48754 16.0625C8.40671 19.0827 10.9673 21.6433 13.9875 23.5625C17.2338 25.6677 20.9286 26.982 24.775 27.4C25.1218 27.4313 25.4712 27.3899 25.801 27.2784C26.1308 27.1669 26.4336 26.9877 26.6901 26.7523C26.9467 26.517 27.1512 26.2307 27.2907 25.9117C27.4301 25.5927 27.5014 25.2481 27.5 24.9Z" stroke="#4A3730" stroke-width="2" stroke-linecap="round" stroke-linejoin="round"/>
</svg>
