<svg width="31" height="31" viewBox="0 0 31 31" fill="none" xmlns="http://www.w3.org/2000/svg">
<g clip-path="url(#clip0_221_1665)">
<path d="M25.325 6.6083C26.7276 6.18593 28.053 5.54014 29.25 4.6958C28.826 6.43669 27.9258 8.02516 26.65 9.2833C26.7154 9.62529 26.7488 9.97261 26.75 10.3208C26.75 24.6958 13 30.9458 1.75 24.6958C4.85895 24.8195 7.92566 23.9433 10.5 22.1958C-0.75 17.1958 4.25 5.9458 4.25 5.9458C5.5129 7.74409 7.20093 9.20215 9.16376 10.1901C11.1266 11.1781 13.3033 11.6653 15.5 11.6083V10.3583C15.4846 9.21122 15.8219 8.08709 16.4662 7.13794C17.1106 6.1888 18.0308 5.46044 19.1026 5.05136C20.1744 4.64229 21.3459 4.57225 22.4588 4.8507C23.5717 5.12916 24.5722 5.74269 25.325 6.6083Z" stroke="#4A3730" stroke-width="2" stroke-linecap="round" stroke-linejoin="round"/>
</g>
<defs>
<clipPath id="clip0_221_1665">
<rect width="30" height="30" fill="white" transform="translate(0.5 0.945801)"/>
</clipPath>
</defs>
</svg>
